# xmcd CD database file
#
# Track frame offsets:
#	150
#	18162
#	36830
#	57368
#	73146
#	88849
#	106852
#	120791
#	143158
#	155726
#	174219
#	186698
#
# Disc length: 2747 seconds
#
# Revision: 0
# Processed by: cddbd v1.5.2PL0 Copyright (c) Steve Scherf et al.
# Submitted via: CDex 1.51
#
DISCID=a00ab90c
DTITLE=Half A Grape - Life And George
DYEAR=2008
DGENRE=Jazz
TTITLE0=Cold Inside
TTITLE1=Creation Day
TTITLE2=Going Home
TTITLE3=Grandpa's Tale
TTITLE4=Keep On Moving
TTITLE5=The Foolish Loner
TTITLE6=The Life Of George
TTITLE7=I Took Him To The Sea
TTITLE8=Time's Too Fast 
TTITLE9=Ridiculous Game
TTITLE10=There's A Place
TTITLE11=Whenever You Need Me
EXTD=YEAR: 2008
EXTT0=
EXTT1=
EXTT2=
EXTT3=
EXTT4=
EXTT5=
EXTT6=
EXTT7=
EXTT8=
EXTT9=
EXTT10=
EXTT11=
PLAYORDER=
